# File created by Blade
# Date/Time:  Thu Sep 25 17:33:50 2014
# Frame Rate: 120.000 fps
#------------------------------------------------------
:FULLY-SPECIFIED
:DEGREES
1077
root -1.000883 32.307413 -0.132689 11.975012 -28.677448 4.530295
Spine -10.708490 -3.680674 -1.080791
Head -10.266019 22.257809 14.713431
LeftShoulder -1.284849 15.915018 18.926772
LeftArm 76.286546 35.668827 -30.584493
LeftForeArm 36.770500 -0.000000 106.664854
LeftHand -34.901909 -0.000000 43.378176
LeftHandThumb1 -26.253704 0.000000 33.147579
RightShoulder -19.474755 6.643724 -19.508670
RightArm -1.626806 -40.231256 86.359880
RightForeArm -23.264760 -0.000000 121.677818
RightHand 7.373104 0.000000 -30.242406
RightHandThumb1 -24.326973 -0.000000 -32.862282
LeftUpLeg -4.484222 3.725664 -4.704993
LeftLeg -1.463819 -0.000000 0.000000
LeftFoot -18.555344 16.794435 -26.871737
LeftToeBase 2.697885 -0.000000 -0.000000
RightUpLeg -30.517114 9.002938 -12.108052
RightLeg 31.631042 -0.000000 -0.000000
RightFoot -16.410109 1.372700 -7.002683
RightToeBase -5.076683 -0.000000 0.000000
1078
root -1.013131 32.317446 -0.164365 12.018982 -28.826879 4.556920
Spine -10.607361 -3.912096 -1.131962
Head -10.581144 22.422009 14.557071
LeftShoulder -1.111996 15.618538 18.893985
LeftArm 76.407636 35.876524 -30.480378
LeftForeArm 37.098351 -0.000000 106.302791
LeftHand -35.174406 0.000000 43.802492
LeftHandThumb1 -26.253704 0.000000 33.147579
RightShoulder -19.360016 6.702846 -19.583597
RightArm -2.576601 -40.069317 87.074658
RightForeArm -22.634739 -0.000000 121.745780
RightHand 7.841361 -0.000000 -30.324105
RightHandThumb1 -24.326973 -0.000000 -32.862282
LeftUpLeg -4.614379 4.114842 -4.739288
LeftLeg -1.411028 -0.000000 0.000000
LeftFoot -18.387962 16.616461 -26.841604
LeftToeBase 2.766578 -0.000000 -0.000000
RightUpLeg -30.667483 8.971609 -12.078606
RightLeg 31.618703 -0.000000 -0.000000
RightFoot -16.235755 1.525879 -6.944708
RightToeBase -5.179832 -0.000000 0.000000
1079
root -1.033793 32.325819 -0.191769 12.051249 -28.906272 4.602741
Spine -10.511945 -4.295343 -1.154482
Head -10.905069 22.648671 14.351958
LeftShoulder -1.042381 15.462928 18.872084
LeftArm 76.523184 36.050621 -30.430704
LeftForeArm 37.317877 0.000000 106.088536
LeftHand -35.179571 0.000000 43.602705
LeftHandThumb1 -26.253704 0.000000 33.147579
RightShoulder -19.302242 6.713924 -19.633808
RightArm -3.348381 -40.164928 87.676657
RightForeArm -22.443007 -0.000000 121.797835
RightHand 8.029966 -0.000000 -30.827459
RightHandThumb1 -24.326973 -0.000000 -32.862282
LeftUpLeg -4.737294 4.510064 -4.785824
LeftLeg -1.346348 -0.000000 0.000000
LeftFoot -18.172193 16.416910 -26.781565
LeftToeBase 2.611646 -0.000000 -0.000000
RightUpLeg -30.757164 8.872842 -12.034171
RightLeg 31.572767 -0.000000 -0.000000
RightFoot -16.135965 1.636287 -6.987059
RightToeBase -5.243664 -0.000000 0.000000
1080
root -1.063976 32.334525 -0.218154 12.108703 -28.995744 4.605148
Spine -10.474499 -4.636183 -1.131453
Head -11.122050 22.858781 14.162186
LeftShoulder -0.893417 15.329486 18.880257
LeftArm 76.572961 36.261962 -30.414404
LeftForeArm 37.594575 -0.000000 105.907876
LeftHand -35.295112 -0.000000 43.886107
LeftHandThumb1 -26.253704 0.000000 33.147579
RightShoulder -19.310773 6.666533 -19.669326
RightArm -4.030264 -40.333700 88.226655
RightForeArm -22.491445 0.000000 121.854650
RightHand 8.279985 -0.000000 -31.145622
RightHandThumb1 -24.326973 -0.000000 -32.862282
LeftUpLeg -4.859939 4.983395 -4.785385
LeftLeg -1.276254 -0.000000 0.000000
LeftFoot -17.964220 16.137231 -26.740834
LeftToeBase 2.619007 -0.000000 -0.000000
RightUpLeg -30.819526 8.866856 -11.962376
RightLeg 31.468734 -0.000000 -0.000000
RightFoot -16.023040 1.688775 -7.043340
RightToeBase -5.338653 -0.000000 0.000000
1081
root -1.091961 32.344094 -0.250957 12.235750 -29.076850 4.546018
Spine -10.475582 -4.996300 -0.991487
Head -11.338226 23.171125 13.912992
LeftShoulder -0.762251 15.212129 18.910058
LeftArm 76.540690 36.496536 -30.611880
LeftForeArm 37.745804 0.000000 105.729600
LeftHand -35.304588 0.000000 44.095757
LeftHandThumb1 -26.253704 0.000000 33.147579
RightShoulder -19.272185 6.631375 -19.748001
RightArm -4.810664 -40.502011 88.800780
RightForeArm -22.778089 0.000000 121.980882
RightHand 7.925465 0.000000 -31.190769
RightHandThumb1 -24.326973 -0.000000 -32.862282
LeftUpLeg -5.058404 5.459236 -4.744975
LeftLeg -1.160894 -0.000000 0.000000
LeftFoot -17.798425 15.915879 -26.627652
LeftToeBase 2.583148 -0.000000 -0.000000
RightUpLeg -30.910748 8.864530 -11.848120
RightLeg 31.306083 -0.000000 -0.000000
RightFoot -15.863052 1.799058 -7.165822
RightToeBase -5.551258 -0.000000 0.000000
1082
root -1.129098 32.353260 -0.282413 12.396320 -29.149103 4.441948
Spine -10.525539 -5.430634 -0.777149
Head -11.475799 23.573793 13.705406
LeftShoulder -0.661980 15.101234 18.922450
LeftArm 76.436593 36.826244 -30.825461
LeftForeArm 38.203176 -0.000000 105.641969
LeftHand -35.583704 -0.000000 44.178572
LeftHandThumb1 -26.253704 0.000000 33.147579
RightShoulder -19.293293 6.506265 -19.746662
RightArm -5.081029 -40.738027 89.015954
RightForeArm -22.726662 -0.000000 122.079154
RightHand 7.378085 -0.000000 -32.368646
RightHandThumb1 -24.326973 -0.000000 -32.862282
LeftUpLeg -5.270139 5.904532 -4.666204
LeftLeg -1.032676 -0.000000 0.000000
LeftFoot -17.645654 15.802599 -26.399227
LeftToeBase 2.522807 -0.000000 -0.000000
RightUpLeg -30.980065 8.911122 -11.699365
RightLeg 31.114970 -0.000000 -0.000000
RightFoot -15.703365 1.868014 -7.224688
RightToeBase -5.619969 -0.000000 0.000000
1083
root -1.168191 32.360683 -0.307757 12.587454 -29.259474 4.301210
Spine -10.627787 -5.779747 -0.496442
Head -11.568389 23.970417 13.463451
LeftShoulder -0.469024 15.125459 18.983209
LeftArm 76.208766 37.114740 -31.227258
LeftForeArm 38.510901 0.000000 105.691612
LeftHand -35.640330 -0.000000 43.883119
LeftHandThumb1 -26.253704 0.000000 33.147579
RightShoulder -19.373468 6.322307 -19.766819
RightArm -5.319207 -40.921256 89.193674
RightForeArm -22.366454 -0.000000 122.165675
RightHand 7.161013 0.000000 -32.796411
RightHandThumb1 -24.326973 -0.000000 -32.862282
LeftUpLeg -5.463831 6.351048 -4.542021
LeftLeg -0.932907 -0.000000 0.000000
LeftFoot -17.523425 15.588019 -26.363680
LeftToeBase 2.342502 -0.000000 -0.000000
RightUpLeg -31.038440 9.020190 -11.540672
RightLeg 30.888788 -0.000000 -0.000000
RightFoot -15.571825 1.891016 -7.147567
RightToeBase -5.637274 -0.000000 0.000000
1084
root -1.216743 32.367820 -0.334577 12.758128 -29.381584 4.140327
Spine -10.718141 -6.157835 -0.207772
Head -11.578388 24.410961 13.319521
LeftShoulder -0.267544 15.277107 19.066793
LeftArm 75.907508 37.308119 -31.733753
LeftForeArm 38.816973 -0.000000 105.755138
LeftHand -35.586189 0.000000 43.494263
LeftHandThumb1 -26.253704 0.000000 33.147579
RightShoulder -19.451671 6.167838 -19.742854
RightArm -5.528654 -41.070875 89.306821
RightForeArm -22.057843 -0.000000 122.254083
RightHand 6.970903 -0.000000 -32.735774
RightHandThumb1 -24.326973 -0.000000 -32.862282
LeftUpLeg -5.631236 6.782202 -4.401135
LeftLeg -0.822393 -0.000000 0.000000
LeftFoot -17.439732 15.527107 -26.164805
LeftToeBase 2.282812 -0.000000 -0.000000
RightUpLeg -31.045907 9.161534 -11.347669
RightLeg 30.619018 -0.000000 -0.000000
RightFoot -15.451314 1.856030 -7.230566
RightToeBase -5.733610 -0.000000 0.000000
1085
root -1.261983 32.374441 -0.361572 12.964135 -29.553688 3.930355
Spine -10.825039 -6.503356 0.191034
Head -11.593724 24.876950 13.100726
LeftShoulder -0.039178 15.312096 19.163385
LeftArm 75.326653 37.629213 -32.497231
LeftForeArm 39.202804 -0.000000 105.865025
LeftHand -35.338572 -0.000000 42.962109
LeftHandThumb1 -26.253704 0.000000 33.147579
RightShoulder -19.542271 6.026472 -19.781681
RightArm -5.658983 -41.182941 89.372019
RightForeArm -21.729091 0.000000 122.313012
RightHand 6.832033 -0.000000 -32.672973
RightHandThumb1 -24.326973 -0.000000 -32.862282
LeftUpLeg -5.813071 7.135758 -4.221834
LeftLeg -0.698427 -0.000000 0.000000
LeftFoot -17.421230 15.528593 -26.026198
LeftToeBase 2.159790 -0.000000 -0.000000
RightUpLeg -31.079198 9.388359 -11.147360
RightLeg 30.331798 -0.000000 -0.000000
RightFoot -15.319365 1.827426 -7.277494
RightToeBase -5.782159 -0.000000 0.000000
1086
root -1.319268 32.378970 -0.383199 13.137573 -29.747082 3.716187
Spine -10.922802 -6.804344 0.552842
Head -11.577843 25.301970 12.944410
LeftShoulder 0.219458 15.396332 19.343324
LeftArm 74.687576 37.939596 -33.297764
LeftForeArm 39.738752 -0.000000 106.006750
LeftHand -35.217305 -0.000000 42.284207
LeftHandThumb1 -26.253704 0.000000 33.147579
RightShoulder -19.735342 5.760131 -19.719663
RightArm -5.531759 -41.345069 89.187676
RightForeArm -21.544581 0.000000 122.341693
RightHand 7.218415 -0.000000 -32.041277
RightHandThumb1 -24.326973 -0.000000 -32.862282
LeftUpLeg -5.927329 7.367919 -4.006743
LeftLeg -0.587088 -0.000000 0.000000
LeftFoot -17.476135 15.650150 -25.941667
LeftToeBase 2.030676 -0.000000 -0.000000
RightUpLeg -31.061382 9.609667 -10.908164
RightLeg 30.053786 -0.000000 -0.000000
RightFoot -15.235223 1.778850 -7.445116
RightToeBase -5.822128 -0.000000 0.000000
